<svg width="666" height="666" viewBox="0 0 666 666" fill="none" xmlns="http://www.w3.org/2000/svg">
<g clip-path="url(#clip0_221_2384)">
<path opacity="0.5" d="M666.334 333C666.334 517.093 517.094 666.333 333 666.333C148.905 666.333 -0.333008 517.093 -0.333008 333C-0.333008 148.905 148.905 -0.333313 333 -0.333313C517.094 -0.333313 666.334 148.905 666.334 333Z" fill="#E2E9FF"/>
<path d="M231.989 231.989C241.752 222.226 257.582 222.226 267.344 231.989L333 297.647L398.657 231.99C408.42 222.227 424.247 222.227 434.01 231.99C443.774 241.753 443.774 257.582 434.01 267.347L368.357 333L434.01 398.653C443.774 408.417 443.774 424.247 434.01 434.01C424.247 443.773 408.417 443.773 398.654 434.01L333 368.357L267.347 434.01C257.582 443.773 241.753 443.773 231.99 434.01C222.227 424.247 222.227 408.42 231.99 398.657L297.647 333L231.989 267.343C222.226 257.581 222.226 241.752 231.989 231.989Z" fill="#1F1D1D"/>
</g>
<defs>
<clipPath id="clip0_221_2384">
<rect width="666" height="666" fill="white"/>
</clipPath>
</defs>
</svg>
